<svg xmlns="http://www.w3.org/2000/svg" xmlns:xlink="http://www.w3.org/1999/xlink" width="150" height="150" viewBox="0 0 150 150">
  <defs>
    <path id="contact-form-icon-a" d="M90.1724138,54.0242214 L76.0734979,62.1642343 C75.742619,62.3552673 75.3781036,62.4352663 75.0230973,62.4157921 C74.668091,62.4352663 74.3035757,62.3552673 73.9726967,62.1642343 L59.8275862,53.9975509 L59.8275862,67.4403448 C59.8275862,68.4731173 60.6648137,69.3103448 61.6975862,69.3103448 L88.3024138,69.3103448 C89.3351863,69.3103448 90.1724138,68.4731173 90.1724138,67.4403448 L90.1724138,54.0242214 Z M90.0691601,49.7039363 C89.8150054,48.9729389 89.1199804,48.4482759 88.3024138,48.4482759 L61.6975862,48.4482759 C60.8882959,48.4482759 60.1990788,48.9623702 59.9386936,49.6818002 L75.0230973,58.3907848 L90.0691601,49.7039363 Z M75,150 C33.5769231,150 0,116.423077 0,75 C0,61.6153846 3.51923077,49.0673077 9.66346154,38.1634615 C12.2307692,34.7884615 16.7596154,37.4423077 14.2788462,42.0865385 C8.97115385,51.8942308 5.94230769,63.1153846 5.94230769,75 C5.94230769,113.134615 36.8653846,144.057692 75,144.057692 C113.134615,144.057692 144.057692,113.134615 144.057692,75 C144.057692,36.8653846 113.134615,5.94230769 75,5.94230769 C62.4519231,5.94230769 50.6826923,9.28846154 40.5288462,15.1442308 C35.3653846,18.0288462 33.3461538,12.6634615 36.4903846,10.6153846 C47.7692308,3.89423077 60.9230769,0 75,0 C116.423077,0 150,33.5769231 150,75 C150,116.423077 116.423077,150 75,150 Z M29.2788462,33.0865385 C29.2788462,33.1153846 29.2788462,33.1153846 29.2788462,33.0865385 C29.2788462,33.75 28.7596154,34.2692308 28.125,34.2692308 C27.9230769,34.2692308 27.75,34.2115385 27.5769231,34.125 L22.0673077,31.3557692 C19.8173077,30.3461538 18.3173077,28.3557692 18.2884615,26.1057692 C18.2884615,24.4038462 18.0288462,22.4423077 15.3173077,20.1057692 C9.98076923,15.4903846 1.35576923,7.99038462 0.432692308,7.18269231 C0.403846154,7.15384615 0.403846154,7.15384615 0.375,7.125 C0.346153846,7.125 0.346153846,7.125 0.346153846,7.125 C0.144230769,6.92307692 0,6.60576923 0,6.28846154 C0,5.65384615 0.519230769,5.13461538 1.15384615,5.13461538 C1.35576923,5.13461538 1.55769231,5.19230769 1.73076923,5.27884615 L25.4711538,17.3942308 C25.5288462,17.4230769 25.6153846,17.4807692 25.6730769,17.5096154 L25.7596154,17.5673077 C27.8653846,18.7211538 29.2788462,20.7115385 29.2788462,22.9615385 C29.2788462,22.9903846 29.2788462,22.9903846 29.2788462,23.0192308 C29.2788462,23.0192308 29.2788462,26.7692308 29.2788462,29.7115385 C29.2788462,31.9326923 29.2788462,32.9134615 29.2788462,33.0865385 Z M57.8248276,38.9655172 L92.1751724,38.9655172 C96.3062623,38.9655172 99.6551724,42.3144273 99.6551724,46.4455172 L99.6551724,103.554483 C99.6551724,107.685573 96.3062623,111.034483 92.1751724,111.034483 L57.8248276,111.034483 C53.6937377,111.034483 50.3448276,107.685573 50.3448276,103.554483 L50.3448276,46.4455172 C50.3448276,42.3144273 53.6937377,38.9655172 57.8248276,38.9655172 Z M56.0344828,78.7931034 L56.0344828,101.604828 C56.0344828,103.670373 57.7089378,105.344828 59.7744828,105.344828 L90.2255172,105.344828 C92.2910622,105.344828 93.9655172,103.670373 93.9655172,101.604828 L93.9655172,78.7931034 L56.0344828,78.7931034 Z M64.5689655,84.4827586 L85.4310345,84.4827586 C87.0021894,84.4827586 88.2758621,85.7564313 88.2758621,87.3275862 C88.2758621,88.8987411 87.0021894,90.1724138 85.4310345,90.1724138 L64.5689655,90.1724138 C62.9978106,90.1724138 61.7241379,88.8987411 61.7241379,87.3275862 C61.7241379,85.7564313 62.9978106,84.4827586 64.5689655,84.4827586 Z M64.5689655,93.9655172 L85.4310345,93.9655172 C87.0021894,93.9655172 88.2758621,95.2391899 88.2758621,96.8103448 C88.2758621,98.3814997 87.0021894,99.6551724 85.4310345,99.6551724 L64.5689655,99.6551724 C62.9978106,99.6551724 61.7241379,98.3814997 61.7241379,96.8103448 C61.7241379,95.2391899 62.9978106,93.9655172 64.5689655,93.9655172 Z"/>
  </defs>
  <g fill="none" fill-rule="evenodd">
    <use fill="#F93262" fill-rule="nonzero" xlink:href="#contact-form-icon-a"/>
  </g>
</svg>
