<svg xmlns="http://www.w3.org/2000/svg" xmlns:xlink="http://www.w3.org/1999/xlink" width="150" height="150" viewBox="0 0 150 150">
  <path fill="#F93262" d="M0 75a74.766 74.766 0 0 1 9.663-36.837c2.568-3.375 7.097-.72 4.616 3.924A68.993 68.993 0 0 0 5.942 75c0 38.135 30.923 69.058 69.058 69.058 38.135 0 69.058-30.923 69.058-69.058 0-38.135-30.923-69.058-69.058-69.058-12.548 0-24.317 3.346-34.471 9.202-5.164 2.885-7.183-2.48-4.039-4.529C47.77 3.895 60.923 0 75 0c41.423 0 75 33.577 75 75s-33.577 75-75 75S0 116.423 0 75zm29.31-51.835v10.128c0 .667-.52 1.19-1.155 1.19a1.19 1.19 0 0 1-.548-.145l-5.516-2.786c-2.252-1.016-3.754-3.018-3.783-5.282 0-1.712-.26-3.686-2.974-6.036A6770.072 6770.072 0 0 1 .434 7.233c-.03-.03-.03-.03-.087-.058A1.237 1.237 0 0 1 0 6.333c0-.638.52-1.16 1.155-1.16.202 0 .404.057.578.145l23.766 12.188c.057.029.144.087.202.116l.086.058c2.108 1.16 3.523 3.163 3.523 5.485zM75 111c-19.882 0-36-16.118-36-36s16.118-36 36-36 36 16.118 36 36-16.118 36-36 36zm0-6c16.569 0 30-13.431 30-30 0-16.569-13.431-30-30-30-16.569 0-30 13.431-30 30 0 16.569 13.431 30 30 30zm4-69v4.5a3.5 3.5 0 0 1-7 0V36h-.5a3.5 3.5 0 0 1 0-7h8a3.5 3.5 0 0 1 0 7H79zm-.01 39.773a3.495 3.495 0 0 1-.46 1.742 3.484 3.484 0 0 1-1.291 1.297L63.53 86.726a3.484 3.484 0 0 1-1.769.47 3.517 3.517 0 0 1-1.715-.46 3.484 3.484 0 0 1-1.297-1.29 3.484 3.484 0 0 1-.47-1.77c.004-.6.163-1.192.46-1.715a3.484 3.484 0 0 1 1.291-1.297L72 73.754V52.5a3.5 3.5 0 0 1 7 0v23a4.1 4.1 0 0 1-.01.273z"/>
</svg>
