<svg xmlns="http://www.w3.org/2000/svg" width="150" height="150" viewBox="0 0 150 150">
  <path fill="#F93262" d="M75 150c-41.423 0-75-33.577-75-75a74.766 74.766 0 0 1 9.663-36.837c2.568-3.375 7.097-.72 4.616 3.924A68.993 68.993 0 0 0 5.942 75c0 38.135 30.923 69.058 69.058 69.058 38.135 0 69.058-30.923 69.058-69.058 0-38.135-30.923-69.058-69.058-69.058-12.548 0-24.317 3.346-34.471 9.202-5.164 2.885-7.183-2.48-4.039-4.529C47.77 3.895 60.923 0 75 0c41.423 0 75 33.577 75 75s-33.577 75-75 75zM29.279 33.087c0 .028 0 .028 0 0 0 .663-.52 1.182-1.154 1.182-.202 0-.375-.057-.548-.144l-5.51-2.77c-2.25-1.009-3.75-3-3.779-5.25 0-1.701-.26-3.663-2.97-6A6753.012 6753.012 0 0 1 .432 7.184l-.058-.058H.346A1.227 1.227 0 0 1 0 6.288c0-.634.52-1.153 1.154-1.153.202 0 .404.057.577.144l23.74 12.115c.058.03.144.087.202.116l.087.057c2.105 1.154 3.519 3.145 3.519 5.395v10.125zm29.077 16.096c-4.846 0-8.798 3.952-8.77 8.798v27.836c0 4.846 3.952 8.798 8.799 8.798h19.903l6.347 5.943H57.692c-7.76 0-14.077-6.346-14.077-14.077V57.317c0-7.76 6.347-14.077 14.077-14.077h29.164c7.76 0 14.077 6.347 14.077 14.077v14.654s-1.385-.058-3.346 1.039c-1.702.98-2.597 2.452-2.597 2.452V57.98c0-4.846-3.952-8.798-8.798-8.798H58.356zm40.413 29.769c.202-.433.635-.692 1.125-.692s.894.26 1.125.692l4.01 8.106c.173.375.52.634.923.692l8.942 1.298c.462.058.866.404 1.01.837.144.461.029.952-.317 1.269l-6.462 6.317c-.288.289-.433.692-.346 1.096l1.529 8.914c.086.461-.116.952-.49 1.211a1.182 1.182 0 0 1-1.299.087l-7.99-4.212a1.174 1.174 0 0 0-1.154 0l-7.99 4.212c-.433.23-.923.173-1.298-.087-.375-.288-.577-.75-.49-1.211l1.528-8.914a1.276 1.276 0 0 0-.346-1.096l-6.577-6.317a1.227 1.227 0 0 1-.317-1.27 1.212 1.212 0 0 1 1.01-.836l8.942-1.298c.403-.058.75-.317.923-.692l4.01-8.106zm-33.615-6.52a.469.469 0 0 1-.462-.403v-4.442c0-.231.202-.433.433-.433h3.115v-3.289c0-.577-.173-2.567 1.558-4.153 1.702-1.558 3.837-1.674 4.442-1.674h3.722c.23 0 .432.202.432.433v4.125c0 .23-.202.433-.432.433h-2.568c-.894 0-1.356.404-1.356 1.27v2.826h3.924c.115 0 .23.058.317.144.086.087.115.231.115.346l-.519 4.5a.437.437 0 0 1-.433.375h-3.404v12.173a.443.443 0 0 1-.432.433h-5.048a.444.444 0 0 1-.433-.433v-12.23h-2.971z"/>
</svg>
