<?xml version="1.0" encoding="utf-8"?>
<!-- Generator: Adobe Illustrator 21.0.2, SVG Export Plug-In . SVG Version: 6.00 Build 0)  -->
<svg version="1.1" id="Layer_1" xmlns="http://www.w3.org/2000/svg" xmlns:xlink="http://www.w3.org/1999/xlink" x="0px" y="0px"
	 viewBox="0 0 520 520" style="enable-background:new 0 0 520 520;" xml:space="preserve">
<path style="fill:#F93262;" d="M260,520C116.4,520,0,403.6,0,260c0-46.4,12.2-89.9,33.5-127.7c8.9-11.7,24.6-2.5,16,13.6
	c-18.4,34-28.9,72.9-28.9,114.1c0,132.2,107.2,239.4,239.4,239.4S499.4,392.2,499.4,260S392.2,20.6,260,20.6
	c-43.5,0-84.3,11.6-119.5,31.9c-17.9,10-24.9-8.6-14-15.7C165.6,13.5,211.2,0,260,0c143.6,0,260,116.4,260,260S403.6,520,260,520
	L260,520z"/>
<path style="fill:#F93262;" d="M101.5,114.7c0-0.6,0-4,0-11.7c0-10.2,0-23.2,0-23.2l0,0c0-0.1,0-0.1,0-0.2c0-7.8-4.9-14.7-12.2-18.7
	l0,0L89,60.7c-0.2-0.1-0.5-0.3-0.7-0.4L6,18.3l0,0c-0.6-0.3-1.3-0.5-2-0.5c-2.2,0-4,1.8-4,4c0,1.1,0.5,2.2,1.2,2.9l0,0
	c0,0,0,0,0.1,0c0.1,0.1,0.1,0.1,0.2,0.2c3.2,2.8,33.1,28.8,51.6,44.8c9.4,8.1,10.3,14.9,10.3,20.8l0,0c0.1,7.8,5.3,14.7,13.1,18.2
	l0,0l19.1,9.6l0,0c0.6,0.3,1.2,0.5,1.9,0.5C99.7,118.8,101.5,117,101.5,114.7C101.5,114.8,101.5,114.8,101.5,114.7z"/>
<path style="fill:#F93262;" d="M208.3,171.5h96.5c16.8,0,30.5,13.7,30.5,30.5v80.6l20.6-13v-69.9c0-26.8-21.9-48.8-48.8-48.8H206
	c-26.8,0-48.8,21.9-48.8,48.8v101.1c0,26.8,21.9,48.8,48.8,48.8h76.4V329h-74c-16.8,0-30.5-13.7-30.5-30.5V202
	C177.8,185.2,191.5,171.5,208.3,171.5z"/>
<path style="fill:#F93262;" d="M232.8,251.1h10.3v42.4c0,0.8,0.7,1.5,1.5,1.5h17.5c0.8,0,1.5-0.7,1.5-1.5v-42.2h11.8
	c0.8,0,1.4-0.6,1.5-1.3l1.8-15.6c0-0.4-0.1-0.9-0.4-1.2s-0.7-0.5-1.1-0.5h-13.6v-9.8c0-3,1.6-4.4,4.7-4.4c0.4,0,8.9,0,8.9,0
	c0.8,0,1.5-0.7,1.5-1.5v-14.3c0-0.8-0.7-1.5-1.5-1.5h-12.3c-0.1,0-0.3,0-0.6,0c-2.1,0-9.5,0.4-15.4,5.8c-6,5.5-5.4,12.4-5.4,14.4
	v11.4h-10.8c-0.8,0-1.5,0.7-1.5,1.5v15.4C231.3,250.4,231.9,251.1,232.8,251.1z"/>
<path style="fill:#F93262;" d="M379,281.5c-10.6,0-19.1,8.5-19.1,19.1s8.5,19.1,19.1,19.1s19.1-8.5,19.1-19.1S389.5,281.5,379,281.5
	z"/>
<path style="fill:#F93262;" d="M379,355.3c-10.6,0-19.1,8.5-19.1,19.1s8.5,19.1,19.1,19.1s19.1-8.5,19.1-19.1S389.5,355.3,379,355.3
	z"/>
<path style="fill:#F93262;" d="M320.1,318.4c-10.6,0-19.1,8.5-19.1,19.1s8.5,19.1,19.1,19.1s19.1-8.5,19.1-19.1
	S330.6,318.4,320.1,318.4z"/>
<rect x="317" y="308.4" transform="matrix(0.8513 -0.5246 0.5246 0.8513 -112.9359 232.9766)" style="fill:#F93262;" width="75.2" height="14.8"/>
<rect x="347.2" y="322" transform="matrix(0.5246 -0.8513 0.8513 0.5246 -137.6265 472.8152)" style="fill:#F93262;" width="14.8" height="75.2"/>
</svg>
