<svg xmlns="http://www.w3.org/2000/svg" xmlns:xlink="http://www.w3.org/1999/xlink" width="150" height="150" viewBox="0 0 150 150">
  <defs>
    <path id="icon-a" d="M58.8828125,87 L84,87 C86.7614237,87 89,84.7614237 89,82 L89,53 C89,50.2385763 86.7614237,48 84,48 L49,48 C46.2385763,48 44,50.2385763 44,53 L44,82 C44,84.7614237 46.2385763,87 49,87 L50,87 L50,95 L58.8828125,87 Z M104,62 C109.522847,62 114,66.4771525 114,72 L114,94 C114,98.8379158 110.564481,102.873423 106,103.799964 L106,109 C106,112.592407 103.300578,113.993758 100.5,111.5 L92.3733335,104 L78,104 C72.4771525,104 68,99.5228475 68,94 L68,93 L61.4129301,93 L50.6600492,102.574836 C49.0101926,104.043941 46.4817749,103.897412 45.0126704,102.247556 C44.3603911,101.515023 44,100.56836 44,99.5875066 L44,92.1679126 C40.4681904,90.6247994 38,87.1006381 38,83 L38,52 C38,46.4771525 42.4771525,42 48,42 L85,42 C90.5228475,42 95,46.4771525 95,52 L95,62 L104,62 Z M0,75 C0,61.6153846 3.51923077,49.0673077 9.66346154,38.1634615 C12.2307692,34.7884615 16.7596154,37.4423077 14.2788462,42.0865385 C8.97115385,51.8942308 5.94230769,63.1153846 5.94230769,75 C5.94230769,113.134615 36.8653846,144.057692 75,144.057692 C113.134615,144.057692 144.057692,113.134615 144.057692,75 C144.057692,36.8653846 113.134615,5.94230769 75,5.94230769 C62.4519231,5.94230769 50.6826923,9.28846154 40.5288462,15.1442308 C35.3653846,18.0288462 33.3461538,12.6634615 36.4903846,10.6153846 C47.7692308,3.89423077 60.9230769,0 75,0 C116.423077,0 150,33.5769231 150,75 C150,116.423077 116.423077,150 75,150 C33.5769231,150 0,116.423077 0,75 Z M29.3103448,23.1649027 L29.3103448,33.2929327 C29.3103448,33.960396 28.7905555,34.4827586 28.1552573,34.4827586 C27.953117,34.4827586 27.7798539,34.4247183 27.6065908,34.3376579 L22.0910481,31.5517241 C19.8386275,30.5360191 18.3370138,28.5336292 18.3081366,26.270058 C18.3081366,24.5578696 18.0482419,22.5844998 15.3337863,20.2338682 C9.99150671,15.5906453 1.35722779,8.04540799 0.433157805,7.23284397 C0.404280618,7.20382383 0.404280618,7.20382383 0.346526244,7.17480369 C0.144385935,6.97166268 0,6.65244111 0,6.33321953 C0,5.69477637 0.519789366,5.17241379 1.15508748,5.17241379 C1.35722779,5.17241379 1.5593681,5.23045408 1.73263122,5.31751451 L25.4985561,17.5059747 C25.5563105,17.5349949 25.6429421,17.5930352 25.7006964,17.6220553 L25.787328,17.6800956 C27.8953627,18.8409013 29.3103448,20.8432912 29.3103448,23.1649027 Z M62.612,72.21 C62.612,70.943327 62.7829983,69.8540046 63.125,68.942 C63.4670017,68.0299954 63.8786643,67.2890028 64.36,66.719 C64.8413357,66.1489971 65.4493297,65.53467 66.184,64.876 C66.8933369,64.21733 67.4063317,63.6663355 67.723,63.223 C68.0396682,62.7796644 68.198,62.2666696 68.198,61.684 C68.198,60.6199947 67.8813365,59.923335 67.248,59.594 C66.6146635,59.264665 65.7786719,59.1 64.74,59.1 C63.7773285,59.1 62.7766719,59.264665 61.738,59.594 C60.6993281,59.923335 59.8000038,60.391997 59.04,61 L59.04,56.136 C59.7746703,55.6293308 60.7373274,55.2050017 61.928,54.863 C63.1186726,54.5209983 64.3346605,54.35 65.576,54.35 C68.3120137,54.35 70.3069937,55.0593262 71.561,56.478 C72.8150063,57.8966738 73.442,59.6446563 73.442,61.722 C73.442,62.9633395 73.2013357,63.9639962 72.72,64.724 C72.2386643,65.4840038 71.5166715,66.3073289 70.554,67.194 C69.6419954,68.0553376 68.9580023,68.8406631 68.502,69.55 C68.0459977,70.2593369 67.818,71.1839943 67.818,72.324 L67.818,72.704 L62.612,72.704 L62.612,72.21 Z M62.27,75.136 L68.16,75.136 L68.16,80 L62.27,80 L62.27,75.136 Z"/>
  </defs>
  <g fill="none" fill-rule="evenodd">
    <use fill="#F93262" fill-rule="nonzero" xlink:href="#icon-a"/>
  </g>
</svg>
