<?xml version="1.0" encoding="UTF-8"?>
<svg width="150px" height="150px" viewBox="0 0 150 150" version="1.1" xmlns="http://www.w3.org/2000/svg" xmlns:xlink="http://www.w3.org/1999/xlink">
    <!-- Generator: Sketch 51.1 (57501) - http://www.bohemiancoding.com/sketch -->
    <title>icon</title>
    <desc>Created with Sketch.</desc>
    <defs>
        <path d="M0,75 C0,61.6153846 3.51923077,49.0673077 9.66346154,38.1634615 C12.2307692,34.7884615 16.7596154,37.4423077 14.2788462,42.0865385 C8.97115385,51.8942308 5.94230769,63.1153846 5.94230769,75 C5.94230769,113.134615 36.8653846,144.057692 75,144.057692 C113.134615,144.057692 144.057692,113.134615 144.057692,75 C144.057692,36.8653846 113.134615,5.94230769 75,5.94230769 C62.4519231,5.94230769 50.6826923,9.28846154 40.5288462,15.1442308 C35.3653846,18.0288462 33.3461538,12.6634615 36.4903846,10.6153846 C47.7692308,3.89423077 60.9230769,0 75,0 C116.423077,0 150,33.5769231 150,75 C150,116.423077 116.423077,150 75,150 C33.5769231,150 0,116.423077 0,75 Z M29.3103448,23.1649027 L29.3103448,33.2929327 C29.3103448,33.960396 28.7905555,34.4827586 28.1552573,34.4827586 C27.953117,34.4827586 27.7798539,34.4247183 27.6065908,34.3376579 L22.0910481,31.5517241 C19.8386275,30.5360191 18.3370138,28.5336292 18.3081366,26.270058 C18.3081366,24.5578696 18.0482419,22.5844998 15.3337863,20.2338682 C9.99150671,15.5906453 1.35722779,8.04540799 0.433157805,7.23284397 C0.404280618,7.20382383 0.404280618,7.20382383 0.346526244,7.17480369 C0.144385935,6.97166268 0,6.65244111 0,6.33321953 C0,5.69477637 0.519789366,5.17241379 1.15508748,5.17241379 C1.35722779,5.17241379 1.5593681,5.23045408 1.73263122,5.31751451 L25.4985561,17.5059747 C25.5563105,17.5349949 25.6429421,17.5930352 25.7006964,17.6220553 L25.787328,17.6800956 C27.8953627,18.8409013 29.3103448,20.8432912 29.3103448,23.1649027 Z M62.8571429,57 L59.6348309,58.3268343 C59.4553201,58.4007506 59.3127673,58.5433033 59.2388511,58.7228141 C59.0857656,59.0945933 59.2630518,59.5200801 59.6348309,59.6731657 L74.3070353,65.7146616 C74.7509324,65.8974428 75.2490676,65.8974428 75.6929647,65.7146616 L90.3651691,59.6731657 C90.5446799,59.5992494 90.6872327,59.4566967 90.7611489,59.2771859 C90.9142344,58.9054067 90.7369482,58.4799199 90.3651691,58.3268343 L87.1428571,57 L75.6929647,61.7146616 C75.2490676,61.8974428 74.7509324,61.8974428 74.3070353,61.7146616 L62.8571429,57 Z M62.8571429,64 L59.6348309,65.3268343 C59.4553201,65.4007506 59.3127673,65.5433033 59.2388511,65.7228141 C59.0857656,66.0945933 59.2630518,66.5200801 59.6348309,66.6731657 L74.3070353,72.7146616 C74.7509324,72.8974428 75.2490676,72.8974428 75.6929647,72.7146616 L90.3651691,66.6731657 C90.5446799,66.5992494 90.6872327,66.4566967 90.7611489,66.2771859 C90.9142344,65.9054067 90.7369482,65.4799199 90.3651691,65.3268343 L87.1428571,64 L75.6929647,68.7146616 C75.2490676,68.8974428 74.7509324,68.8974428 74.3070353,68.7146616 L62.8571429,64 Z M57.8248276,38.9655172 L92.1751724,38.9655172 C96.3062623,38.9655172 99.6551724,42.3144273 99.6551724,46.4455172 L99.6551724,103.554483 C99.6551724,107.685573 96.3062623,111.034483 92.1751724,111.034483 L57.8248276,111.034483 C53.6937377,111.034483 50.3448276,107.685573 50.3448276,103.554483 L50.3448276,46.4455172 C50.3448276,42.3144273 53.6937377,38.9655172 57.8248276,38.9655172 Z M59.6348309,51.3268343 C59.4553201,51.4007506 59.3127673,51.5433033 59.2388511,51.7228141 C59.0857656,52.0945933 59.2630518,52.5200801 59.6348309,52.6731657 L74.3070353,58.7146616 C74.7509324,58.8974428 75.2490676,58.8974428 75.6929647,58.7146616 L90.3651691,52.6731657 C90.5446799,52.5992494 90.6872327,52.4566967 90.7611489,52.2771859 C90.9142344,51.9054067 90.7369482,51.4799199 90.3651691,51.3268343 L75.6929647,45.2853384 C75.2490676,45.1025572 74.7509324,45.1025572 74.3070353,45.2853384 L59.6348309,51.3268343 Z M56.0344828,78.7931034 L56.0344828,101.604828 C56.0344828,103.670373 57.7089378,105.344828 59.7744828,105.344828 L90.2255172,105.344828 C92.2910622,105.344828 93.9655172,103.670373 93.9655172,101.604828 L93.9655172,78.7931034 L56.0344828,78.7931034 Z M64.5689655,84.4827586 L85.4310345,84.4827586 C87.0021894,84.4827586 88.2758621,85.7564313 88.2758621,87.3275862 C88.2758621,88.8987411 87.0021894,90.1724138 85.4310345,90.1724138 L64.5689655,90.1724138 C62.9978106,90.1724138 61.7241379,88.8987411 61.7241379,87.3275862 C61.7241379,85.7564313 62.9978106,84.4827586 64.5689655,84.4827586 Z M64.5689655,93.9655172 L85.4310345,93.9655172 C87.0021894,93.9655172 88.2758621,95.2391899 88.2758621,96.8103448 C88.2758621,98.3814997 87.0021894,99.6551724 85.4310345,99.6551724 L64.5689655,99.6551724 C62.9978106,99.6551724 61.7241379,98.3814997 61.7241379,96.8103448 C61.7241379,95.2391899 62.9978106,93.9655172 64.5689655,93.9655172 Z" id="path-1"></path>
    </defs>
    <g id="icon" stroke="none" stroke-width="1" fill="none" fill-rule="evenodd">
        <mask id="mask-2" fill="white">
            <use xlink:href="#path-1"></use>
        </mask>
        <use id="Combined-Shape" fill="#F93262" fill-rule="nonzero" xlink:href="#path-1"></use>
    </g>
</svg>