<?xml version="1.0" encoding="utf-8"?>
<!-- Generator: Adobe Illustrator 21.0.2, SVG Export Plug-In . SVG Version: 6.00 Build 0)  -->
<svg version="1.1" id="Layer_1" xmlns="http://www.w3.org/2000/svg" xmlns:xlink="http://www.w3.org/1999/xlink" x="0px" y="0px"
	 viewBox="0 0 520 520" style="enable-background:new 0 0 520 520;" xml:space="preserve">
<style type="text/css">
	.st0{fill:#F93262;}
</style>
<path class="st0" d="M260,520C116.4,520,0,403.6,0,260c0-46.4,12.2-89.9,33.5-127.7c8.9-11.7,24.6-2.5,16,13.6
	c-18.4,34-28.9,72.9-28.9,114.1c0,132.2,107.2,239.4,239.4,239.4S499.4,392.2,499.4,260S392.2,20.6,260,20.6
	c-43.5,0-84.3,11.6-119.5,31.9c-17.9,10-24.9-8.6-14-15.7C165.6,13.5,211.2,0,260,0c143.6,0,260,116.4,260,260S403.6,520,260,520
	L260,520z"/>
<path class="st0" d="M101.5,114.7c0-0.6,0-4,0-11.7c0-10.2,0-23.2,0-23.2l0,0c0-0.1,0-0.1,0-0.2c0-7.8-4.9-14.7-12.2-18.7l0,0
	L89,60.7c-0.2-0.1-0.5-0.3-0.7-0.4L6,18.3l0,0c-0.6-0.3-1.3-0.5-2-0.5c-2.2,0-4,1.8-4,4c0,1.1,0.5,2.2,1.2,2.9l0,0c0,0,0,0,0.1,0
	c0.1,0.1,0.1,0.1,0.2,0.2c3.2,2.8,33.1,28.8,51.6,44.8c9.4,8.1,10.3,14.9,10.3,20.8l0,0c0.1,7.8,5.3,14.7,13.1,18.2l0,0l19.1,9.6
	l0,0c0.6,0.3,1.2,0.5,1.9,0.5C99.7,118.8,101.5,117,101.5,114.7C101.5,114.8,101.5,114.8,101.5,114.7z"/>
<g>
	<path class="st0" d="M182.1,355c20.7,18.2,47.9,29.3,77.5,29.3c24.1,0,46.6-7.3,65.3-19.7l-76.2-76.2L182.1,355z"/>
</g>
<path class="st0" d="M316.1,271.5c0,0-10.2-11.3-22.4-28l-18.5,18.3l77.1,77.1c15.6-19.9,24.8-45,24.8-72.2
	c0-21.4-5.7-41.5-15.8-58.8C342.9,241.6,316.1,271.5,316.1,271.5z"/>
<g>
	<path class="st0" d="M252.7,153.6c0-1.5,0.1-2.9,0.1-4.5C191.1,152.8,142,204,142,266.7c0,21.5,5.7,41.9,16,59.2l114.7-114.7
		C261.6,192.1,252.7,171.2,252.7,153.6z M199.8,240.4c-8.7-2.9-15.5-11-17-20c-0.2-1.4-0.2-2.7-0.2-4c0-0.8,0-1.7,0-2.4
		c0.8-12.2,11.8-22.8,24.1-22.9c6.8-0.5,13.2,2,18.2,6.2l0,0l0,0c-2,2.3-4.2,4.6-6.6,6.7c-4.5-2.8-9.9-4.8-15.1-2.9
		c-8.4,2.4-13.5,12.4-10.3,20.6c0.5,2.2,1.8,4.1,3.2,5.6c4.5,4.8,11.8,6.8,17.9,4.1c4.2-1.6,7.1-5.4,8.3-9.7
		c-4.8-0.1-9.8,0-14.5-0.1l0,0l0,0c0-2.9,0-5.7,0-8.6c8.1,0,16.2,0,24.3,0l0,0l0,0c0.4,7.1-0.5,14.7-5.2,20.4
		C221,241.3,209.2,243.6,199.8,240.4z"/>
</g>
<g>
	<g id="place">
		<path class="st0" d="M316.1,104.3c-27.6,0-49.4,21.8-49.4,49.4c0,36.7,49.4,91.7,49.4,91.7s49.4-55.2,49.4-91.7
			C365.6,126.1,343.7,104.3,316.1,104.3z M316.1,171.4c-9.9,0-17.7-7.7-17.7-17.7c0-9.9,7.7-17.7,17.7-17.7
			c9.9,0,17.7,7.7,17.7,17.7C333.8,163.6,326,171.4,316.1,171.4z"/>
	</g>
</g>
</svg>
