<svg viewBox="0 0 520 520" id="icon-app-instagram-widget" width="100%" height="100%" style="fill:#F93262;"><path d="M260 520C116.4 520 0 403.6 0 260c0-46.4 12.2-89.9 33.5-127.7 8.9-11.7 24.6-2.5 16 13.6-18.4 34-28.9 72.9-28.9 114.1 0 132.2 107.2 239.4 239.4 239.4S499.4 392.2 499.4 260 392.2 20.6 260 20.6c-43.5 0-84.3 11.6-119.5 31.9-17.9 10-24.9-8.6-14-15.7C165.6 13.5 211.2 0 260 0c143.6 0 260 116.4 260 260S403.6 520 260 520z"></path><path d="M101.5 114.7V103 79.8v-.2c0-7.8-4.9-14.7-12.2-18.7l-.3-.2c-.2-.1-.5-.3-.7-.4L6 18.3c-.6-.3-1.3-.5-2-.5-2.2 0-4 1.8-4 4 0 1.1.5 2.2 1.2 2.9h.1l.2.2c3.2 2.8 33.1 28.8 51.6 44.8 9.4 8.1 10.3 14.9 10.3 20.8.1 7.8 5.3 14.7 13.1 18.2l19.1 9.6c.6.3 1.2.5 1.9.5 2.2 0 4-1.8 4-4.1 0 .1 0 .1 0 0zM398.9 323.7c-.3-5.3-1.1-9.5-2.6-13.5-1.6-4.1-3.8-7.5-6.9-10.6s-6.5-5.3-10.6-6.9-8.2-2.4-13.5-2.6c-5.2-.2-6.9-.3-19.9-.3s-14.7.1-19.9.3c-5.3.2-9.5 1.1-13.5 2.6-4.1 1.6-7.5 3.8-10.6 6.9s-5.3 6.5-6.9 10.6-2.4 8.2-2.6 13.5c-.2 5.2-.3 6.9-.3 19.9s.1 14.7.3 19.9c.2 5.3 1.1 9.5 2.6 13.5 1.6 4.1 3.8 7.5 6.9 10.6s6.5 5.3 10.6 6.9 8.2 2.4 13.5 2.6c5.2.2 6.9.3 19.9.3s14.7-.1 19.9-.3c5.3-.2 9.5-1.1 13.5-2.6 4.1-1.6 7.5-3.8 10.6-6.9s5.3-6.5 6.9-10.6 2.4-8.2 2.6-13.5c.2-5.2.3-6.9.3-19.9s0-14.7-.3-19.9zm-53.3-15.1c10.7 0 19.4 8.7 19.4 19.4s-8.7 19.4-19.4 19.4-19.4-8.7-19.4-19.4 8.7-19.4 19.4-19.4zm34.1 68h-68.1v-4.9c0-10.7 8.7-19.4 19.4-19.4h29.1c10.7 0 19.4 8.7 19.4 19.4v4.9h.2z"></path><g><circle cx="301.8" cy="198.5" r="11.2"></circle><path d="M250.9 198.6c-28 0-50.8 22.8-50.8 50.8s22.8 50.8 50.8 50.8 50.8-22.8 50.8-50.8-22.8-50.8-50.8-50.8zm0 79.8c-16 0-28.9-13-28.9-28.9s13-28.9 28.9-28.9 28.9 13 28.9 28.9-12.9 28.9-28.9 28.9z"></path></g><path d="M202.3 170.5h96.5c16.8 0 30.5 13.7 30.5 30.5v74.6h20.6v-76.9c0-26.8-21.9-48.8-48.8-48.8H200c-26.8 0-48.8 21.9-48.8 48.8v101.1c0 26.8 21.9 48.8 48.8 48.8h77.4V328h-75c-16.8 0-30.5-13.7-30.5-30.5V201c-.1-16.8 13.6-30.5 30.4-30.5z"></path></svg>