<?xml version="1.0" encoding="utf-8"?>
<!-- Generator: Adobe Illustrator 21.0.2, SVG Export Plug-In . SVG Version: 6.00 Build 0)  -->
<svg version="1.1" id="Layer_1" xmlns="http://www.w3.org/2000/svg" xmlns:xlink="http://www.w3.org/1999/xlink" x="0px" y="0px"
	 viewBox="0 0 520 520" style="enable-background:new 0 0 520 520;" xml:space="preserve">
<path style="fill:#F93262;" d="M260,520C116.4,520,0,403.6,0,260c0-46.4,12.2-89.9,33.5-127.7c8.9-11.7,24.6-2.5,16,13.6
	c-18.4,34-28.9,72.9-28.9,114.1c0,132.2,107.2,239.4,239.4,239.4S499.4,392.2,499.4,260S392.2,20.6,260,20.6
	c-43.5,0-84.3,11.6-119.5,31.9c-17.9,10-24.9-8.6-14-15.7C165.6,13.5,211.2,0,260,0c143.6,0,260,116.4,260,260S403.6,520,260,520
	L260,520z"/>
<path style="fill:#F93262;" d="M101.5,114.7c0-0.6,0-4,0-11.7c0-10.2,0-23.2,0-23.2l0,0c0-0.1,0-0.1,0-0.2c0-7.8-4.9-14.7-12.2-18.7
	l0,0L89,60.7c-0.2-0.1-0.5-0.3-0.7-0.4L6,18.3l0,0c-0.6-0.3-1.3-0.5-2-0.5c-2.2,0-4,1.8-4,4c0,1.1,0.5,2.2,1.2,2.9l0,0
	c0,0,0,0,0.1,0c0.1,0.1,0.1,0.1,0.2,0.2c3.2,2.8,33.1,28.8,51.6,44.8c9.4,8.1,10.3,14.9,10.3,20.8l0,0c0.1,7.8,5.3,14.7,13.1,18.2
	l0,0l19.1,9.6l0,0c0.6,0.3,1.2,0.5,1.9,0.5C99.7,118.8,101.5,117,101.5,114.7C101.5,114.8,101.5,114.8,101.5,114.7z"/>
<g>
	<circle style="fill:#F93262;" cx="301.8" cy="198.5" r="11.2"/>
	<path style="fill:#F93262;" d="M250.9,198.6c-28,0-50.8,22.8-50.8,50.8s22.8,50.8,50.8,50.8s50.8-22.8,50.8-50.8
		S278.9,198.6,250.9,198.6z M250.9,278.4c-16,0-28.9-13-28.9-28.9s13-28.9,28.9-28.9s28.9,13,28.9,28.9S266.9,278.4,250.9,278.4z"/>
</g>
<path style="fill:#F93262;" d="M202.3,170.5h96.5c16.8,0,30.5,13.7,30.5,30.5v60.6c0,0,3.1-5.1,9-8.5c6.8-3.8,11.6-3.6,11.6-3.6
	v-50.8c0-26.8-21.9-48.8-48.8-48.8H200c-26.8,0-48.8,21.9-48.8,48.8v101.1c0,26.8,21.9,48.8,48.8,48.8h93.4l-22-20.6h-69
	c-16.8,0-30.5-13.7-30.5-30.5V201C171.8,184.2,185.5,170.5,202.3,170.5z"/>
<g>
	<path style="fill:#F93262;" d="M342.4,273.7c0.7-1.5,2.2-2.4,3.9-2.4s3.1,0.9,3.9,2.4l13.9,28.1c0.6,1.3,1.8,2.2,3.2,2.4l31,4.5
		c1.6,0.2,3,1.4,3.5,2.9c0.5,1.6,0.1,3.3-1.1,4.4l-22.4,21.9c-1,1-1.5,2.4-1.2,3.8l5.3,30.9c0.3,1.6-0.4,3.3-1.7,4.2
		c-1.3,1-3.1,1.1-4.5,0.3l-27.7-14.6c-1.3-0.7-2.8-0.7-4,0l-27.7,14.6c-1.5,0.8-3.2,0.6-4.5-0.3c-1.3-1-2-2.6-1.7-4.2l5.3-30.9
		c0.2-1.4-0.2-2.8-1.2-3.8L291.9,316c-1.2-1.1-1.6-2.9-1.1-4.4c0.5-1.6,1.9-2.7,3.5-2.9l31-4.5c1.4-0.2,2.6-1.1,3.2-2.4L342.4,273.7
		z"/>
</g>
</svg>
