<svg xmlns="http://www.w3.org/2000/svg" xmlns:xlink="http://www.w3.org/1999/xlink" width="150" height="150"
     viewBox="0 0 150 150">
    <path fill="#F93262" d="M0 75a74.766 74.766 0 0 1 9.663-36.837c2.568-3.375 7.097-.72 4.616 3.924A68.993 68.993 0 0 0 5.942 75c0 38.135 30.923 69.058 69.058 69.058 38.135 0 69.058-30.923 69.058-69.058 0-38.135-30.923-69.058-69.058-69.058-12.548 0-24.317 3.346-34.471 9.202-5.164 2.885-7.183-2.48-4.039-4.529C47.77 3.895 60.923 0 75 0c41.423 0 75 33.577 75 75s-33.577 75-75 75S0 116.423 0 75zm69.71-7.315h-2.625l1.842-11.772a1.452 1.452 0 0 1 1.432-1.234h1.205c3.141 0 6.107 0 7.638 1.805.915 1.08 1.191 2.684.846 4.896-.952 6.305-5.722 6.305-10.338 6.305zM60.434 45c-1.19 0-2.201.878-2.387 2.07L51.018 92.3c-.139.891.54 1.699 1.43 1.699h8.301c1.188 0 2.199-.878 2.385-2.067l1.898-12.204a2.425 2.425 0 0 1 2.385-2.07h5.5c11.45 0 18.06-5.622 19.785-16.769.778-4.871.032-8.7-2.216-11.382C88.014 46.56 83.632 45 77.816 45H60.434zm14.592 36.298h-4.684a2.272 2.272 0 0 0-2.248 1.917l-2.399 15.118-.68 4.288A1.195 1.195 0 0 0 66.198 104h8.308c.983 0 1.82-.712 1.974-1.677l.08-.42 1.567-9.867.1-.545a1.995 1.995 0 0 1 1.974-1.677h1.244c8.047 0 14.349-3.25 16.19-12.651.77-3.929.371-7.209-1.662-9.513a7.028 7.028 0 0 0-.65-.643c-.269-.235-1.68 5.711-6.307 9.738-3.6 3.134-9.963 4.553-13.99 4.553zM29.31 23.165v10.128c0 .667-.52 1.19-1.155 1.19a1.19 1.19 0 0 1-.548-.145l-5.516-2.786c-2.252-1.016-3.754-3.018-3.783-5.282 0-1.712-.26-3.686-2.974-6.036A6770.072 6770.072 0 0 1 .434 7.233c-.03-.03-.03-.03-.087-.058A1.237 1.237 0 0 1 0 6.333c0-.638.52-1.16 1.155-1.16.202 0 .404.057.578.145l23.766 12.188c.057.029.144.087.202.116l.086.058c2.108 1.16 3.523 3.163 3.523 5.485z"/>
</svg>
