<svg xmlns="http://www.w3.org/2000/svg" xmlns:xlink="http://www.w3.org/1999/xlink" width="150" height="150" viewBox="0 0 150 150">
  <path fill="#F93262" d="M75 150c-41.423 0-75-33.577-75-75a74.766 74.766 0 0 1 9.663-36.837c2.568-3.375 7.097-.72 4.616 3.924A68.993 68.993 0 0 0 5.942 75c0 38.135 30.923 69.058 69.058 69.058 38.135 0 69.058-30.923 69.058-69.058 0-38.135-30.923-69.058-69.058-69.058-12.548 0-24.317 3.346-34.471 9.202-5.164 2.885-7.183-2.48-4.039-4.529C47.77 3.895 60.923 0 75 0c41.423 0 75 33.577 75 75s-33.577 75-75 75zM29.279 33.087c0 .028 0 .028 0 0 0 .663-.52 1.182-1.154 1.182-.202 0-.375-.057-.548-.144l-5.51-2.77c-2.25-1.009-3.75-3-3.779-5.25 0-1.701-.26-3.663-2.97-6A6753.012 6753.012 0 0 1 .432 7.184l-.058-.058H.346A1.227 1.227 0 0 1 0 6.288c0-.634.52-1.153 1.154-1.153.202 0 .404.057.577.144l23.74 12.115c.058.03.144.087.202.116l.087.057c2.105 1.154 3.519 3.145 3.519 5.395v10.125zm56.02 9.519c7.73 0 14.047 6.317 14.047 14.048v29.134c0 7.731-6.317 14.049-14.048 14.049H56.163c-7.73 0-14.048-6.318-14.048-14.049V56.654c0-7.73 6.318-14.048 14.048-14.048h29.135zm8.134 42.519h-.03V57.317c0-4.817-3.951-8.769-8.768-8.769H56.827c-4.817 0-8.77 3.952-8.77 8.77v27.807c0 4.817 3.953 8.77 8.77 8.77h27.836c4.818 0 8.77-3.953 8.77-8.77zm11.394-28.5c3.577 2.538 5.942 6.721 5.942 11.452v29.135c0 7.73-6.317 14.048-14.048 14.048H67.587c-4.702 0-8.914-2.366-11.452-5.943h39.923c4.817 0 8.769-3.952 8.769-8.769V56.625zM65.532 69.631a8.045 8.045 0 0 1-.316-2.244c0-2.945 1.76-5.258 4.078-5.258 1.875 0 3 1.364 3 3.26 0 1.008-.198 1.78-1.003 4.37a65.4 65.4 0 0 0-.313 1.029c-.135.46-.244.862-.335 1.24-.377 1.584.769 2.926 2.442 2.926 3.053 0 5.38-4.021 5.38-9.274 0-3.938-2.707-6.544-7.217-6.544-5.073 0-8.633 3.652-8.633 8.305 0 1.384.374 2.426 1.104 3.28.45.526.537.855.37 1.477-.037.139-.09.342-.185.718-.14.547-.158.622-.194.758-.2.751-.892 1.083-1.6.795-2.664-1.077-4.11-3.92-4.11-7.486C58 60.583 63.569 55 71.757 55 78.772 55 84 59.975 84 66.03c0 7.568-4.32 13.096-10.507 13.096-1.644 0-3.294-.68-4.301-1.672l-.41 1.598-.01.04c-.32 1.242-.544 2.103-.634 2.428-.316 1.137-.872 2.33-1.6 3.548a24.02 24.02 0 0 1-1.835 2.64c-.394.509-1.24.326-1.332-.34a25.19 25.19 0 0 1-.143-1.101c-.164-1.495-.208-3.014-.06-4.45.058-.572.146-1.114.267-1.621l1.167-4.897 1.18-4.952a6.395 6.395 0 0 1-.25-.716z"/>
</svg>
