<?xml version="1.0" encoding="utf-8"?>
<!-- Generator: Adobe Illustrator 21.0.2, SVG Export Plug-In . SVG Version: 6.00 Build 0)  -->
<svg version="1.1" id="Layer_1" xmlns="http://www.w3.org/2000/svg" xmlns:xlink="http://www.w3.org/1999/xlink" x="0px" y="0px"
	 viewBox="0 0 520 520" style="enable-background:new 0 0 520 520;" xml:space="preserve">
<path style="fill:#F93262;" d="M260,520C116.4,520,0,403.6,0,260c0-46.4,12.2-89.9,33.5-127.7c8.9-11.7,24.6-2.5,16,13.6
	c-18.4,34-28.9,72.9-28.9,114.1c0,132.2,107.2,239.4,239.4,239.4S499.4,392.2,499.4,260S392.2,20.6,260,20.6
	c-43.5,0-84.3,11.6-119.5,31.9c-17.9,10-24.9-8.6-14-15.7C165.6,13.5,211.2,0,260,0c143.6,0,260,116.4,260,260S403.6,520,260,520
	L260,520z"/>
<path style="fill:#F93262;" d="M101.5,114.7c0-0.6,0-4,0-11.7c0-10.2,0-23.2,0-23.2l0,0c0-0.1,0-0.1,0-0.2c0-7.8-4.9-14.7-12.2-18.7
	l0,0L89,60.7c-0.2-0.1-0.5-0.3-0.7-0.4L6,18.3l0,0c-0.6-0.3-1.3-0.5-2-0.5c-2.2,0-4,1.8-4,4c0,1.1,0.5,2.2,1.2,2.9l0,0
	c0,0,0,0,0.1,0c0.1,0.1,0.1,0.1,0.2,0.2c3.2,2.8,33.1,28.8,51.6,44.8c9.4,8.1,10.3,14.9,10.3,20.8l0,0c0.1,7.8,5.3,14.7,13.1,18.2
	l0,0l19.1,9.6l0,0c0.6,0.3,1.2,0.5,1.9,0.5C99.7,118.8,101.5,117,101.5,114.7C101.5,114.8,101.5,114.8,101.5,114.7z"/>
<g style="enable-background:new    ;">
	<path style="fill:#F93262;" d="M264.5,206.9v15.5c3.7,0.4,6.8,1.1,9.4,2.2c2.6,1.1,4.9,2.8,6.8,5.1c1.5,1.8,2.7,3.5,3.6,5.3
		c0.8,1.8,1.2,3.5,1.2,5c0,1.7-0.6,3.2-1.8,4.4s-2.7,1.8-4.5,1.8c-3.4,0-5.5-1.8-6.5-5.4c-1.1-4.3-3.8-7.1-8.1-8.5v21.2
		c4.2,1.1,7.6,2.2,10.1,3.2c2.5,0.9,4.7,2.4,6.7,4.1c2.1,1.9,3.7,4.1,4.9,6.7c1.1,2.6,1.7,5.5,1.7,8.6c0,3.9-0.9,7.6-2.7,10.9
		s-4.5,6.2-8,8.3s-7.8,3.4-12.6,3.8v15.2c0,2-0.7,4.8-3.2,4.8c-1.2,0-2.1-0.4-2.6-1.1c-0.5-0.8-0.8-0.9-0.8-2.5v-16.3
		c-4-0.5-7.5-1.4-10.5-2.8c-3-1.5-5.5-3.2-7.5-5.3s-3.4-4.4-4.4-6.6c-0.9-2.3-1.5-4.6-1.5-6.8c0-1.6,0.6-3.1,1.9-4.4
		c1.3-1.3,2.9-2,4.8-2c1.5,0,2.8,0.4,3.9,1.1c1.1,0.7,1.8,1.8,2.2,3c0.9,2.8,1.8,5,2.4,6.4c0.7,1.5,1.7,2.8,3.1,4
		c1.4,1.2,3.2,2.1,5.5,2.8V265c-4.6-1.3-8.4-2.7-11.5-4.2c-3.1-1.5-5.6-3.7-7.5-6.6c-1.9-2.8-2.8-6.6-2.8-11.1
		c0-5.9,1.8-10.7,5.6-14.4s9.2-6,16.2-6.6v-15.4c0-2.8,1.1-4.3,3.2-4.3C263.4,202.7,264.5,204.1,264.5,206.9z M258,252v-19.6
		c-2.8,0.8-5.1,2-6.7,3.4c-1.6,1.4-2.4,3.5-2.4,6.3c0,2.7,0.8,4.7,2.2,6.1C252.6,249.6,254.9,250.8,258,252z M264.5,267.2v22.4
		c3.4-0.7,6.1-2.1,7.9-4.1c1.9-2.1,2.8-4.5,2.8-7.3c0-3-0.9-5.3-2.7-6.9C270.7,269.6,268.1,268.3,264.5,267.2z"/>
</g>
<path style="fill:#F93262;" d="M287.7,141.7h-55c-26.8,0-48.7,21.9-48.7,48.7v141c0,26.8,21.9,48.7,48.7,48.7h63
	c26.8,0,40.7-21.9,40.7-48.7v-141C336.4,163.6,314.5,141.7,287.7,141.7z M315.9,329.1c0,16.7-5.7,30.4-22.4,30.4H235
	c-16.7,0-30.4-13.7-30.4-30.4V192.7c0-16.7,13.7-30.4,30.4-30.4h50.4c16.7,0,30.4,13.7,30.4,30.4v136.4L315.9,329.1L315.9,329.1z"/>
<path style="fill:#F93262;" d="M360.7,161.7H345c4.4,6,6.4,13,7.7,20.6h5.7c16.7,0,30.4,13.7,30.4,30.4v96.4h0.1
	c0,16.7-13.7,30.4-30.4,30.4h-5.8c-1.3,7.6-3.3,14.6-7.7,20.6h15.7c26.8,0,48.7-21.9,48.7-48.7v-101
	C409.4,183.6,387.5,161.7,360.7,161.7z"/>
<path style="fill:#F93262;" d="M159.7,161.7h15.7c-4.4,6-6.4,13-7.7,20.6H162c-16.7,0-30.4,13.7-30.4,30.4v96.4h-0.1
	c0,16.7,13.7,30.4,30.4,30.4h5.8c1.3,7.6,3.3,14.6,7.7,20.6h-15.7c-26.8,0-48.7-21.9-48.7-48.7v-101
	C111,183.6,132.9,161.7,159.7,161.7z"/>
</svg>
