<svg xmlns="http://www.w3.org/2000/svg" xmlns:xlink="http://www.w3.org/1999/xlink" width="150" height="150" viewBox="0 0 150 150">
  <defs>
    <path id="testimonials-slider-icon-a" d="M58.9931641,91 L96,91 C98.7614237,91 101,88.7614237 101,86 L101,55 C101,52.2385763 98.7614237,50 96,50 L54,50 C51.2385763,50 49,52.2385763 49,55 L49,86 L49,100 L58.9931641,91 Z M61.5359656,97 L49.6600492,107.574836 C48.0101926,109.043941 45.4817749,108.897412 44.0126704,107.247556 C43.3603911,106.515023 43,105.56836 43,104.587507 L43,84.1205902 L43,54 C43,48.4771525 47.4771525,44 53,44 L97,44 C102.522847,44 107,48.4771525 107,54 L107,87 C107,92.5228475 102.522847,97 97,97 L61.5359656,97 Z M0,75 C0,61.6153846 3.51923077,49.0673077 9.66346154,38.1634615 C12.2307692,34.7884615 16.7596154,37.4423077 14.2788462,42.0865385 C8.97115385,51.8942308 5.94230769,63.1153846 5.94230769,75 C5.94230769,113.134615 36.8653846,144.057692 75,144.057692 C113.134615,144.057692 144.057692,113.134615 144.057692,75 C144.057692,36.8653846 113.134615,5.94230769 75,5.94230769 C62.4519231,5.94230769 50.6826923,9.28846154 40.5288462,15.1442308 C35.3653846,18.0288462 33.3461538,12.6634615 36.4903846,10.6153846 C47.7692308,3.89423077 60.9230769,0 75,0 C116.423077,0 150,33.5769231 150,75 C150,116.423077 116.423077,150 75,150 C33.5769231,150 0,116.423077 0,75 Z M29.3103448,29.897576 C29.3103448,32.132127 29.3103448,33.1188119 29.3103448,33.2929327 C29.3103448,33.960396 28.7905555,34.4827586 28.1552573,34.4827586 C27.953117,34.4827586 27.7798539,34.4247183 27.6065908,34.3376579 L22.0910481,31.5517241 C19.8386275,30.5360191 18.3370138,28.5336292 18.3081366,26.270058 C18.3081366,24.5578696 18.0482419,22.5844998 15.3337863,20.2338682 C9.99150671,15.5906453 1.35722779,8.04540799 0.433157805,7.23284397 C0.404280618,7.20382383 0.404280618,7.20382383 0.346526244,7.17480369 C0.144385935,6.97166268 0,6.65244111 0,6.33321953 C0,5.69477637 0.519789366,5.17241379 1.15508748,5.17241379 C1.35722779,5.17241379 1.5593681,5.23045408 1.73263122,5.31751451 L25.4985561,17.5059747 C25.5563105,17.5349949 25.6429421,17.5930352 25.7006964,17.6220553 L25.787328,17.6800956 C27.8953627,18.8409013 29.3103448,20.8432912 29.3103448,23.1649027 C29.3103448,23.1649027 29.3103448,26.9375213 29.3103448,29.897576 Z M73.5475197,74.1643694 C73.5475197,76.0242121 72.956656,77.4999346 71.774911,78.5915814 C70.5931659,79.6832281 69.0963113,80.2290433 67.2843022,80.2290433 C65.1571611,80.2290433 63.4042656,79.5012897 62.025563,78.0457607 C60.6468605,76.5902317 59.9575195,74.4474017 59.9575195,71.6172064 C59.9575195,61.9755859 68.2538631,58.3234509 69.1204762,58 L70.6004842,60.2402734 C66.9370929,62.1226255 65.7072472,65.6586914 65.7072472,68.5060815 C66.0223792,68.4252188 66.5997985,68.1746528 68.0319922,68.1746528 C69.6076522,68.1746528 71.3809936,68.9083131 72.2476066,70.0403912 C73.1142197,71.1724693 73.5475197,72.547115 73.5475197,74.1643694 Z M90.5475197,74.1643694 C90.5475197,76.0242121 89.956656,77.4999346 88.774911,78.5915814 C87.5931659,79.6832281 86.0963113,80.2290433 84.2843022,80.2290433 C82.1571611,80.2290433 80.4042656,79.5012897 79.025563,78.0457607 C77.6468605,76.5902317 76.9575195,74.4474017 76.9575195,71.6172064 C76.9575195,61.9755859 85.2538631,58.3234509 86.1204762,58 L87.6004842,60.2402734 C83.9370929,62.1226255 82.7072472,65.6586914 82.7072472,68.5060815 C83.0223792,68.4252188 83.5997985,68.1746528 85.0319922,68.1746528 C86.6076522,68.1746528 88.3809936,68.9083131 89.2476066,70.0403912 C90.1142197,71.1724693 90.5475197,72.547115 90.5475197,74.1643694 Z"/>
  </defs>
  <g fill="none" fill-rule="evenodd">
    <use fill="#F93262" fill-rule="nonzero" xlink:href="#testimonials-slider-icon-a"/>
  </g>
</svg>
