<svg xmlns="http://www.w3.org/2000/svg" xmlns:xlink="http://www.w3.org/1999/xlink" width="150" height="150" viewBox="0 0 150 150">
  <path fill="#F93262" d="M75 150c-41.423 0-75-33.577-75-75a74.766 74.766 0 0 1 9.663-36.837c2.568-3.375 7.097-.72 4.616 3.924A68.993 68.993 0 0 0 5.942 75c0 38.135 30.923 69.058 69.058 69.058 38.135 0 69.058-30.923 69.058-69.058 0-38.135-30.923-69.058-69.058-69.058-12.548 0-24.317 3.346-34.471 9.202-5.164 2.885-7.183-2.48-4.039-4.529C47.77 3.895 60.923 0 75 0c41.423 0 75 33.577 75 75s-33.577 75-75 75zM29.279 33.087c0 .028 0 .028 0 0 0 .663-.52 1.182-1.154 1.182-.202 0-.375-.057-.548-.144l-5.51-2.77c-2.25-1.009-3.75-3-3.779-5.25 0-1.701-.26-3.663-2.97-6A6753.012 6753.012 0 0 1 .432 7.184l-.058-.058H.346A1.227 1.227 0 0 1 0 6.288c0-.634.52-1.153 1.154-1.153.202 0 .404.057.577.144l23.74 12.115c.058.03.144.087.202.116l.087.057c2.105 1.154 3.519 3.145 3.519 5.395v10.125zm56.02 9.519c7.73 0 14.047 6.317 14.047 14.048v29.134c0 7.731-6.317 14.049-14.048 14.049H56.163c-7.73 0-14.048-6.318-14.048-14.049V56.654c0-7.73 6.318-14.048 14.048-14.048h29.135zm8.134 42.519h-.03V57.317c0-4.817-3.951-8.769-8.768-8.769H56.827c-4.817 0-8.77 3.952-8.77 8.77v27.807c0 4.817 3.953 8.77 8.77 8.77h27.836c4.818 0 8.77-3.953 8.77-8.77zm11.394-28.5c3.577 2.538 5.942 6.721 5.942 11.452v29.135c0 7.73-6.317 14.048-14.048 14.048H67.587c-4.702 0-8.914-2.366-11.452-5.943h39.923c4.817 0 8.769-3.952 8.769-8.769V56.625zm-21.795 8.103C83.41 72.894 77.167 82 66.121 82c-3.36 0-6.489-.962-9.121-2.61 3.156.363 6.306-.49 8.809-2.404-2.604-.046-4.801-1.725-5.559-4.032.932.174 1.85.124 2.687-.1-2.861-.56-4.837-3.076-4.772-5.766a6.03 6.03 0 0 0 2.695.726c-2.65-1.728-3.4-5.142-1.842-7.751 2.936 3.513 7.32 5.824 12.264 6.066C70.416 62.497 73.238 59 77.08 59a6.01 6.01 0 0 1 4.342 1.833 12.121 12.121 0 0 0 3.779-1.409 5.86 5.86 0 0 1-2.616 3.213c1.202-.14 2.35-.453 3.416-.915a11.884 11.884 0 0 1-2.968 3.006z"/>
</svg>
