<svg xmlns="http://www.w3.org/2000/svg" xmlns:xlink="http://www.w3.org/1999/xlink" width="150" height="150"
     viewBox="0 0 150 150">
  <path fill="#F93262" d="M75 150c-41.423 0-75-33.577-75-75a74.766 74.766 0 0 1 9.663-36.837c2.568-3.375 7.097-.72 4.616 3.924A68.993 68.993 0 0 0 5.942 75c0 38.135 30.923 69.058 69.058 69.058 38.135 0 69.058-30.923 69.058-69.058 0-38.135-30.923-69.058-69.058-69.058-12.548 0-24.317 3.346-34.471 9.202-5.164 2.885-7.183-2.48-4.039-4.529C47.77 3.895 60.923 0 75 0c41.423 0 75 33.577 75 75s-33.577 75-75 75zM29.279 33.087c0 .028 0 .028 0 0 0 .663-.52 1.182-1.154 1.182-.202 0-.375-.057-.548-.144l-5.51-2.77c-2.25-1.009-3.75-3-3.779-5.25 0-1.701-.26-3.663-2.97-6A6753.012 6753.012 0 0 1 .432 7.184l-.058-.058H.346A1.227 1.227 0 0 1 0 6.288c0-.634.52-1.153 1.154-1.153.202 0 .404.057.577.144l23.74 12.115c.058.03.144.087.202.116l.087.057c2.105 1.154 3.519 3.145 3.519 5.395v10.125zm44.059 7.952c19.898-.94 36.263 15.096 35.645 34.764-.577 18.35-16.007 32.924-34.512 32.644a34.063 34.063 0 0 1-14.61-3.518l-17.169 4.035c-.941.22-1.796-.602-1.601-1.543l3.61-17.38A33.358 33.358 0 0 1 41 74.83c-.056-17.98 14.232-32.936 32.337-33.79zm20.487 52.359a26.346 26.346 0 0 0 7.797-18.673c0-7.054-2.769-13.685-7.797-18.673C88.797 51.065 82.11 48.318 75 48.318c-7.048 0-13.842 2.792-18.826 7.735-5.028 4.987-7.797 11.619-7.797 18.672 0 4.225.973 8.258 2.893 11.988L52.45 89l-2.215 10.67 10.526-2.474 2.391 1.181A26.516 26.516 0 0 0 75 101.132c7.111 0 13.796-2.747 18.825-7.734zM91.5 82.039a2.43 2.43 0 0 1 1.392 3.65c-1.289 2.016-3.332 4.478-5.889 5.093-4.507 1.083-11.43.025-20.076-7.978-7.483-6.928-9.462-12.698-8.994-17.275.265-2.596 2.446-4.94 4.284-6.481 1.253-1.051 3.17-.618 3.835.87l2.77 6.217a2.419 2.419 0 0 1-.303 2.473l-1.406 1.805a2.364 2.364 0 0 0-.19 2.637c1.674 2.891 8.228 8.671 11.343 9.922.899.36 1.93.14 2.608-.546l1.61-1.628a2.468 2.468 0 0 1 2.43-.635l6.586 1.876z"/>
</svg>
