<?xml version="1.0" encoding="utf-8"?>
<!-- Generator: Adobe Illustrator 21.0.2, SVG Export Plug-In . SVG Version: 6.00 Build 0)  -->
<svg version="1.1" id="Layer_1" xmlns="http://www.w3.org/2000/svg" xmlns:xlink="http://www.w3.org/1999/xlink" x="0px" y="0px"
	 viewBox="0 0 520 520" style="enable-background:new 0 0 520 520;" xml:space="preserve">
<style type="text/css">
	.st0{fill:#F93262;}
</style>
<path class="st0" d="M260,520C116.4,520,0,403.6,0,260c0-46.4,12.2-89.9,33.5-127.7c8.9-11.7,24.6-2.5,16,13.6
	c-18.4,34-28.9,72.9-28.9,114.1c0,132.2,107.2,239.4,239.4,239.4S499.4,392.2,499.4,260S392.2,20.6,260,20.6
	c-43.5,0-84.3,11.6-119.5,31.9c-17.9,10-24.9-8.6-14-15.7C165.6,13.5,211.2,0,260,0c143.6,0,260,116.4,260,260S403.6,520,260,520
	L260,520z"/>
<path class="st0" d="M101.5,114.7c0-0.6,0-4,0-11.7c0-10.2,0-23.2,0-23.2l0,0c0-0.1,0-0.1,0-0.2c0-7.8-4.9-14.7-12.2-18.7l0,0
	L89,60.7c-0.2-0.1-0.5-0.3-0.7-0.4L6,18.3l0,0c-0.6-0.3-1.3-0.5-2-0.5c-2.2,0-4,1.8-4,4c0,1.1,0.5,2.2,1.2,2.9l0,0c0,0,0,0,0.1,0
	c0.1,0.1,0.1,0.1,0.2,0.2c3.2,2.8,33.1,28.8,51.6,44.8c9.4,8.1,10.3,14.9,10.3,20.8l0,0c0.1,7.8,5.3,14.7,13.1,18.2l0,0l19.1,9.6
	l0,0c0.6,0.3,1.2,0.5,1.9,0.5C99.7,118.8,101.5,117,101.5,114.7C101.5,114.8,101.5,114.8,101.5,114.7z"/>
<path class="st0" d="M339.9,165.4c-13.7-9.6-44.4-15.2-94.5-15.2c-38,0-66.4,3.2-82.1,8.9c-24.5,8.5-36.7,30.7-36.7,88.8
	c0,58.1,12.2,80.3,36.7,88.8c15.7,5.7,44.1,8.9,82.1,8.9c50.2,0,80.8-5.6,94.5-15.2c17.2-11.7,24-35.2,24-82.5
	C363.9,200.6,357.1,177.1,339.9,165.4z M325.2,314.7c-11.5,7.8-37.8,12.3-79.8,12.3c-31.8,0-56.3-2.6-69.4-7.2
	c-20.5-6.9-30.1-24.9-30.1-71.9s9.6-65,30.1-71.9c13.1-4.6,37.6-7.2,69.4-7.2c42,0,68.3,4.5,79.8,12.3c14.4,9.5,19.5,28.5,19.5,66.8
	C344.6,286.2,339.6,305.2,325.2,314.7z"/>
<path class="st0" d="M384.2,212.5c0,23.6,0,48.5,0,75c0,38.3-8.9,57.4-23.3,66.8c-11.5,7.8-33.9,12.3-76,12.3c-20.2,0-63,0-95.3,0
	c5.1,4.4,10.8,7.5,17.1,9.6c15.7,5.7,40.2,8.9,78.2,8.9c50.2,0,77-5.6,90.7-15.2c17.2-11.7,27.9-35.2,27.9-82.5
	C403.4,248.6,396.3,225.9,384.2,212.5z"/>
<path class="st0" d="M282.5,255.4l-49.6,25.5c-8.1,4.3-14.7-0.5-14.7-6.6v-52.5c0-8,6.6-11.2,14.7-6.6l49.6,25.5
	C288.5,245.1,287.9,251.1,282.5,255.4z"/>
</svg>
