<?xml version="1.0" encoding="utf-8"?>
<!-- Generator: Adobe Illustrator 17.0.1, SVG Export Plug-In . SVG Version: 6.00 Build 0)  -->
<!DOCTYPE svg PUBLIC "-//W3C//DTD SVG 1.1//EN" "http://www.w3.org/Graphics/SVG/1.1/DTD/svg11.dtd">
<svg version="1.1" id="Layer_1" xmlns="http://www.w3.org/2000/svg" xmlns:xlink="http://www.w3.org/1999/xlink" x="0px" y="0px"
	 width="1592.464px" height="365.265px" viewBox="0 0 1592.464 365.265" enable-background="new 0 0 1592.464 365.265"
	 xml:space="preserve">
<path fill="#F93262" d="M237.764,246.143c-0.003-1.346-0.016-9.428-0.016-27.336c0-23.786,0-54.312,0-54.312l-0.012,0.014
	c0.001-0.132,0.012-0.261,0.012-0.393c0-18.384-11.389-34.55-28.616-43.923c0.001-0.001,0.009-0.01,0.009-0.01l-0.726-0.372
	c-0.562-0.297-1.127-0.59-1.701-0.872L14.049,20.171l-0.003,0.005c-1.379-0.806-2.976-1.275-4.684-1.275
	C4.192,18.901,0,23.129,0,28.348c0,2.68,1.111,5.095,2.887,6.815l-0.003,0.004c0,0,0.056,0.048,0.139,0.121
	c0.173,0.161,0.35,0.318,0.535,0.466c7.521,6.554,77.542,67.56,120.903,104.9c22.033,18.978,24.213,34.969,24.213,48.724
	c0,0.01,0.01,0.009,0.012,0.017c0.175,18.36,12.475,34.328,30.624,42.742l-0.059,0.068l44.759,22.512l0.002-0.001
	c1.312,0.705,2.808,1.108,4.398,1.108c5.173,0,9.365-4.228,9.365-9.447C237.775,246.298,237.766,246.221,237.764,246.143z"/>
<path fill="#F93262" d="M661.996,206.309c-4.828,4.101-11.055,6.146-18.683,6.146h-102.01c0.447,13.069,5.157,23.641,14.139,31.722
	c8.976,8.089,22.089,13.127,35.332,13.127c10.997,0,22.399-3.489,36.204-10.465c13.802-6.976,14.314-7.414,15.499-8.061
	c8.774-4.788,14.481-1.826,17.833,3.579c6.682,10.775,4.653,19.377,0.196,23.92c-8.629,8.796-19.213,14.796-32.907,19.924
	c-12.915,4.836-24.306,6.976-37.957,6.976c-26.643,0-46.352-9.302-63.142-27.905c-15.897-17.713-23.84-39.971-23.84-66.771
	c0-25.91,8.111-48.002,24.344-66.272c16.228-18.273,35.322-27.406,61.296-27.406c22.831,0,41.36,8.362,57.594,25.08
	c16.228,16.724,23.344,36.49,23.344,59.297C669.236,196.508,666.822,202.213,661.996,206.309L661.996,206.309z M619.678,152.326
	c-7.276-8.414-19.071-13.623-31.38-13.623c-12.314,0-24.666,5.209-33.061,13.623c-8.395,8.42-13.044,18.827-13.935,31.226h89.959
	C630.812,171.152,626.951,160.746,619.678,152.326L619.678,152.326z M723.827,291.849c-14.219,0-19.321-0.177-19.321-18.535V50.285
	c0-18.355,5.102-19.535,19.321-19.535c14.213,0,19.323,1.067,19.323,19.202v223.362C743.15,291.672,738.04,291.849,723.827,291.849
	L723.827,291.849z M857.043,67.61c-0.798,0-10.611,0.005-11.437,0.005c-3.359,0-5.934,1.444-7.725,4.319
	c-1.794,2.88-2.685,15.172-2.685,35.545c11.416,0,20.023-0.443,23.831,0.662c8.059,2.439,10.088,8.971,10.088,17.608
	s-1.029,15.177-9.088,17.611c-3.809,1.111-13.416,0.662-24.832,0.662v129.587c0,17.939-4.415,18.24-18.739,18.24
	c-13.656,0-19.236-0.078-19.236-18.24V144.022h-11.378c-12.719,0-17.497-5.948-17.497-18.273c0-16.157,8.362-18.255,16.276-18.255
	c1.445,0,10.977-0.015,12.599-0.015c0-34.031,1.565-44.616,4.702-52.812c6.265-15.946,16.929-23.917,39.986-23.917
	c1.16,0,11.219,0,12.308,0c12.009,0,15.897,6.34,15.897,18.598C870.116,57.104,869.626,67.61,857.043,67.61z M974.543,144.335
	c-9.478-2.878-14.537-3.973-23.512-3.973c-5.824,0-13.862,1.331-18.112,3.988c-5.151,2.88-7.722,7.089-7.722,12.623
	c0,5.316,3.684,10.216,10.41,13.956c11.154,6.204,20.555,10.815,32.258,16.28c15.594,7.281,24.881,14.421,30.235,19.268
	c10.693,9.68,13.425,23.946,13.425,33.896c0,16.463-3.505,31.224-18.498,41.854c-13.433,9.525-25.55,11.285-44.355,11.285
	c-23.104,0-46.733-7.471-60.796-21.687c-6.44-6.51-6.417-12.333-2.695-20.52c3.904-8.586,9.194-10.313,16.138-7.933
	c4.81,1.648,12.868,5.72,20.66,9.467c13.313,6.403,29.98,8.737,40.833,3.482c4.941-2.392,8.067-6.828,8.067-14.621
	c0-9.458-5.725-15.726-21.17-22.594c-25.075-10.848-35.287-18.383-38.644-20.598c-15.445-10.186-23.17-24.032-23.17-39.535
	c0-16.829,6.827-30.339,20.483-40.528c12.309-9.078,27.31-13.62,44.995-13.62c12.088,0,22.833,2.656,35.942,8.637
	c19.977,9.114,18.977,18.447,16.843,25.91c-3.508,12.269-11.033,11.371-15.799,9.939
	C990.359,149.308,985.21,147.574,974.543,144.335z M1080.045,81.45c-4.138,4.186-9.186,6.276-15.143,6.276
	c-5.964,0-11.062-2.091-15.29-6.276c-4.231-4.184-6.345-9.227-6.345-15.127c0-5.893,2.114-10.889,6.345-14.982
	c4.228-4.089,9.326-6.135,15.29-6.135c5.768,0,10.766,2.095,14.999,6.279c4.228,4.186,6.345,9.132,6.345,14.838
	C1086.245,72.223,1084.178,77.266,1080.045,81.45L1080.045,81.45z M1063.77,107.479c14.213,0,19.321,0.954,19.321,18.863v147.313
	c0,18.132-5.108,18.194-19.321,18.194c-14.219,0-19.324-0.061-19.324-18.194V126.673
	C1044.446,108.549,1049.551,107.479,1063.77,107.479L1063.77,107.479z M1275.908,301.897c-4.029,21.23-12.882,37.268-28.548,48.107
	c-14.555,10.173-32.735,15.26-56.741,15.26c-22.494,0-39.111-5.176-54.776-15.519c-9.853-6.604-15.212-12.106-13.775-20.123
	c0.923-5.15,3.361-10.277,5.87-13.215c3.852-4.511,10.688-3.834,13.593-2.625c2.35,0.978,7.52,3.39,17.147,8.169
	c13.43,6.739,23.637,8.106,36.621,8.106c30.667,0,47.004-20.171,47.004-56.515v-6.943c0,0-13.179,25.248-46.361,25.248
	c-23.956,0-42.317-9.944-57.09-29.845c-13.433-17.909-20.149-39.018-20.149-63.337c0-25.199,6.937-46.641,20.819-64.332
	c15.222-19.452,33.258-29.181,58.107-29.181c18.745,0,34.375,7.532,44.674,22.591c0-17.504,6.737-20.265,18.153-20.265
	c13.837,0,18.477,3.428,18.477,26.872v130.72C1278.932,278.785,1277.923,291.061,1275.908,301.897L1275.908,301.897z
	 M1234.205,161.628c-7.637-12.176-19.328-18.27-35.057-18.27c-13.483,0-25.047,6.201-32.684,18.601
	c-6.747,10.856-10.118,23.256-10.118,37.207c0,14.4,3.26,26.8,9.776,37.207c7.64,12.182,19.427,18.27,33.362,18.27
	c14.155,0,25.284-5.531,33.373-16.608c7.188-9.743,10.787-21.811,10.787-36.212C1243.645,185.214,1240.497,171.817,1234.205,161.628
	L1234.205,161.628z M1450.754,291.849c-14.216,0-19.321-0.056-19.321-18.177v-90.376c0-34.055-12.558-42.427-30.756-42.427
	c-9.552,0-19.385,2.372-29.07,12.264c-6.614,6.755-13.024,17.123-13.024,29.498v91.041c0,18.121-5.169,18.177-19.492,18.177
	c-14.103,0-19.153-0.056-19.153-19.663V47.761c0-16.842,5.05-17.011,19.153-17.011c14.323,0,19.492,0.161,19.492,18.477
	c0,46.764,0,74.347,0,76.378c10.137-12.613,29.197-20.615,50.016-20.615c21.04,0,33.383,7.193,45.025,19.573
	c10.966,12.157,16.454,29.735,16.454,50.736v98.356C1470.078,291.787,1464.967,291.849,1450.754,291.849L1450.754,291.849z
	 M1582.59,143.36c-3.809,1.105-13.416,0.659-24.831,0.659c0,23.843-0.006,99.001-0.006,102.394c0,7.913,4.055,8.567,7.412,8.567
	c0.841,0,12.655,0.046,13.44,0.046c13.02,0,14.072,10.766,14.072,18.222c0,12.678-4.351,18.586-14.554,18.586
	c-0.542,0-16.093,0.015-16.652,0.015c-23.057,0-41.688-11.995-41.688-44.823c0-10.861,0-74.163,0-103.007
	c-8.684,0-11.092-0.112-15.742-0.112c-7.511,0-13.136-4.167-13.136-18.158c0-10.425,2.053-18.27,15.497-18.27h13.381V48.657
	c0-18.162,4.827-18.24,18.483-18.24c14.323,0,19.492-0.032,19.492,17.907v59.156c11.416,0,21.022-0.451,24.831,0.659
	c8.059,2.436,10.088,8.973,10.088,17.611S1590.649,140.921,1582.59,143.36L1582.59,143.36z"/>
<path fill="#F93262" d="M192.926,365.188C92.273,361.673,13.245,276.929,16.76,176.277c0.169-4.851,0.41-9.645,0.974-14.385
	c0.287-2.411,4.051-20.689,20.477-18.509C50.525,145.018,54.422,155.79,53.512,164c-0.175,1.578-0.532,5.752-0.532,5.752
	c-0.226,2.572-0.386,5.163-0.478,7.773c-2.827,80.944,60.728,149.095,141.671,151.922c80.941,2.827,149.094-60.726,151.921-141.669
	c2.827-80.947-60.728-149.098-141.668-151.925c-9.17-0.32-18.177,0.218-26.941,1.532l0,0c0,0-21.174,3.506-25.891-10.793
	c-4.564-13.836,6.098-21.84,13.316-23.341c13.166-2.521,26.811-3.627,40.764-3.139c100.65,3.515,179.677,88.258,176.162,188.914
	C378.322,289.678,293.575,368.703,192.926,365.188L192.926,365.188z"/>
</svg>
